# xmcd CD database file
#
# Track frame offsets:
#	150
#	20023
#	37308
#	54886
#	72615
#	90084
#	104259
#	119929
#	136591
#	154483
#
# Disc length: 2378 seconds
#
# Revision: 3
# Processed by: cddbd v1.4PL0 Copyright (c) Steve Scherf et al.
# Submitted via: CDex 1.40Release
#
DISCID=8b09480a
DTITLE=Nickelback - Silver Side Up+
DYEAR=2000
DGENRE=Rock and Roll
TTITLE0=Never Again
TTITLE1=How You Remind Me
TTITLE2=Woke Up This Morning
TTITLE3=Too Bad
TTITLE4=Just For
TTITLE5=Hollywood
TTITLE6=Money Bought
TTITLE7=Where Do I Hide
TTITLE8=Hangnail
TTITLE9=Good Times Gone
EXTD=YEAR: 2000 ID3G: 78
EXTT0=
EXTT1=
EXTT2=
EXTT3=
EXTT4=
EXTT5=
EXTT6=
EXTT7=
EXTT8=
EXTT9=
PLAYORDER=
